refGRF
version=1
nRows=37
nColumns=19
inDegrees=no
endheader
time	ground_force_r_vx	ground_force_r_vy	ground_force_r_vz	ground_force_l_vx	ground_force_l_vy	ground_force_l_vz	ground_force_r_px	ground_force_r_py	ground_force_r_pz	ground_force_l_px	ground_force_l_py	ground_force_l_pz	ground_torque_r_x	ground_torque_r_y	ground_torque_r_z	ground_torque_l_x	ground_torque_l_y	ground_torque_l_z
      0.75400000	      0.00000000	      0.00000000	      0.00000000	    101.30271039	    155.28443451	    -23.55765176	   -904.00000000	      0.00000000	    601.00000000	   2804.22699301	      0.00000000	    444.70246181	     -0.00000000	     -0.00000000	      0.00000000	   -115.01051917	   -148.03065934	     33.28766353
      0.75500000	      0.00000000	      0.00000000	      0.00000000	     95.63039891	    138.11410470	    -23.48399020	   -904.00000000	      0.00000000	    601.00000000	   2804.08942884	      0.00000000	    445.17515831	     -0.00000000	     -0.00000000	      0.00000000	   -130.77928378	   -148.92044158	     41.18846012
      0.75600000	      0.00000000	      0.00000000	      0.00000000	     90.05822912	    121.95974195	    -23.30352549	   -904.00000000	      0.00000000	    601.00000000	   2803.84662229	      0.00000000	    445.82733753	     -0.00000000	     -0.00000000	      0.00000000	   -159.03377624	   -168.76345454	     52.59383391
      0.75700000	     -0.00000000	     -0.00000000	      0.00000000	     84.36625267	    106.90043629	    -22.95260998	   -904.00000000	      0.00000000	    601.00000000	   2803.56604937	      0.00000000	    446.67615332	     -0.00000000	     -0.00000000	      0.00000000	   -197.55673989	   -205.20211714	     67.17178092
      0.75800000	     -0.00000000	     -0.00000000	     -0.00000000	     78.38772892	     93.00254316	    -22.38280319	   -904.00000000	      0.00000000	    601.00000000	   2803.34994451	      0.00000000	    447.75540994	     -0.00000000	     -0.00000000	      0.00000000	   -242.89939575	   -254.28588084	     84.18518719
      0.75900000	     -0.00000000	     -0.00000000	     -0.00000000	     72.03242187	     80.31092848	    -21.56545952	   -904.00000000	      0.00000000	    601.00000000	   2803.29625592	      0.00000000	    449.14537114	     -0.00000000	     -0.00000000	      0.00000000	   -291.31046620	   -311.51099908	    102.76975817
      0.76000000	     -0.00000000	     -0.00000000	     -0.00000000	     65.27197886	     68.82865873	    -20.48298747	   -904.00000000	      0.00000000	    601.00000000	   2803.35004942	      0.00000000	    451.10702332	     -0.00000000	     -0.00000000	      0.00000000	   -338.90852287	   -372.25900546	    121.88056316
      0.76100000	     -0.00000000	     -0.00000000	     -0.00000000	     58.10859329	     58.46986749	    -19.11547139	   -904.00000000	      0.00000000	    601.00000000	   2803.03414854	      0.00000000	    454.28655985	     -0.00000000	     -0.00000000	     -0.00000000	   -380.68907696	   -430.10467604	    139.71786645
      0.76200000	     -0.00000000	     -0.00000000	     -0.00000000	     50.59188304	     49.09055169	    -17.45392694	   -904.00000000	      0.00000000	    601.00000000	   2801.61201385	      0.00000000	    459.50044576	     -0.00000000	      0.00000000	     -0.00000000	   -411.23389964	   -477.39199007	    154.02402889
      0.76300000	     -0.00000000	     -0.00000000	     -0.00000000	     42.84529793	     40.55936071	    -15.51956004	   -904.00000000	      0.00000000	    601.00000000	   2798.42833042	      0.00000000	    467.36282547	      0.00000000	      0.00000000	     -0.00000000	   -426.28569709	   -507.51107327	    162.83048666
      0.76400000	     -0.00000000	     -0.00000000	     -0.00000000	     35.06130974	     32.79192922	    -13.36823103	   -904.00000000	      0.00000000	    601.00000000	   2793.10063824	      0.00000000	    478.09712579	      0.00000000	      0.00000000	     -0.00000000	   -423.59931447	   -516.27000004	    164.89848318
      0.76500000	     -0.00000000	     -0.00000000	     -0.00000000	     27.47641483	     25.75556471	    -11.08417062	   -904.00000000	      0.00000000	    601.00000000	   2785.58084513	      0.00000000	    491.50259438	      0.00000000	      0.00000000	     -0.00000000	   -403.13334095	   -502.35023774	    159.86889350
      0.76600000	     -0.00000000	     -0.00000000	     -0.00000000	     20.33865343	     19.45769755	     -8.76833101	   -904.00000000	      0.00000000	    601.00000000	   2776.13144894	      0.00000000	    507.01730461	      0.00000000	      0.00000000	     -0.00000000	   -366.80791169	   -467.13849874	    148.21419828
      0.76700000	     -0.00000000	     -0.00000000	     -0.00000000	     13.87621828	     13.92755212	     -6.52526870	   -904.00000000	      0.00000000	    601.00000000	   2765.25248113	      0.00000000	    523.83181662	      0.00000000	      0.00000000	     -0.00000000	   -318.01422156	   -414.17981937	    131.07027614
      0.76800000	      0.00000000	      0.00000000	     -0.00000000	      8.27233365	      9.19729868	     -4.45117236	   -904.00000000	      0.00000000	    601.00000000	   2753.58688548	      0.00000000	    541.01931727	      0.00000000	      0.00000000	     -0.00000000	   -261.02124723	   -348.44795873	    110.01011311
      0.76900000	      0.00000000	      0.00000000	      0.00000000	      3.64891382	      5.28642542	     -2.62458134	   -904.00000000	      0.00000000	    601.00000000	   2741.82446018	      0.00000000	    557.65842760	      0.00000000	      0.00000000	     -0.00000000	   -200.38704145	   -275.58176317	     86.80642095
      0.77000000	      0.00000000	      0.00000000	      0.00000000	      0.05951589	      2.19115626	     -1.10049134	   -904.00000000	      0.00000000	    601.00000000	   2730.61779487	      0.00000000	    572.93377381	      0.00000000	      0.00000000	     -0.00000000	   -140.44717538	   -201.19192727	     63.21612097
      0.77100000	      0.00000000	      0.00000000	      0.00000000	     -2.50927735	     -0.12064199	      0.09209403	   -904.00000000	      0.00000000	    601.00000000	   2720.51795579	      0.00000000	    586.20674696	      0.00000000	      0.00000000	     -0.00000000	    -84.92262169	   -130.30324016	     40.80719398
      0.77200000	      0.00000000	      0.00000000	      0.00000000	     -4.12975391	     -1.70954615	      0.94954779	   -904.00000000	      0.00000000	    601.00000000	   2711.93308721	      0.00000000	    597.05459183	      0.00000000	      0.00000000	      0.00000000	    -36.66437037	    -66.96413927	     20.83788876
      0.77300000	      0.00000000	      0.00000000	      0.00000000	     -4.92035892	     -2.66068879	      1.49059014	   -904.00000000	      0.00000000	    601.00000000	   2705.10961533	      0.00000000	    605.28011384	     -0.00000000	     -0.00000000	      0.00000000	      2.46728963	    -14.02888773	      4.18992815
      0.77400000	      0.00000000	      0.00000000	      0.00000000	     -5.03053584	     -3.07717700	      1.75161667	   -904.00000000	      0.00000000	    601.00000000	   2700.13331399	      0.00000000	    610.89699915	     -0.00000000	     -0.00000000	      0.00000000	     31.60464385	     26.90187657	     -8.64880095
      0.77500000	      0.00000000	      0.00000000	      0.00000000	     -4.62509113	     -3.07212168	      1.78116297	   -904.00000000	      0.00000000	    601.00000000	   2696.94601923	      0.00000000	    614.09718826	     -0.00000000	     -0.00000000	      0.00000000	     50.77993652	     55.40939700	    -17.56063823
      0.77600000	      0.00000000	      0.00000000	      0.00000000	     -3.86969209	     -2.76044724	      1.63420825	   -904.00000000	      0.00000000	    601.00000000	   2695.37312363	      0.00000000	    615.20715315	     -0.00000000	     -0.00000000	      0.00000000	     60.76659076	     72.08798777	    -22.74435337
      0.77700000	      0.00000000	      0.00000000	      0.00000000	     -2.91866592	     -2.25142028	      1.36688960	   -904.00000000	      0.00000000	    601.00000000	   2695.15697937	      0.00000000	    614.63954258	     -0.00000000	     -0.00000000	      0.00000000	     62.88282710	     78.31520886	    -24.64247929
      0.77800000	      0.00000000	      0.00000000	      0.00000000	     -1.90580751	     -1.64255971	      1.03204142	   -904.00000000	      0.00000000	    601.00000000	   2695.99181923	      0.00000000	    612.84572477	     -0.00000000	     -0.00000000	      0.00000000	     58.78366908	     75.99507472	    -23.86044513
      0.77900000	     -0.00000000	     -0.00000000	      0.00000000	     -0.93847430	     -1.01530887	      0.67581047	   -904.00000000	      0.00000000	    601.00000000	   2697.55660109	      0.00000000	    610.27349718	     -0.00000000	     -0.00000000	      0.00000000	     50.26286542	     67.30356499	    -21.08666283
      0.78000000	     -0.00000000	     -0.00000000	     -0.00000000	     -0.09488303	     -0.43259395	      0.33544592	   -904.00000000	      0.00000000	    601.00000000	   2699.54314134	      0.00000000	    607.33284656	     -0.00000000	     -0.00000000	      0.00000000	     39.08077365	     54.45925167	    -17.02068453
      0.78100000	     -0.00000000	     -0.00000000	     -0.00000000	      0.57575553	      0.06181971	      0.03823453	   -904.00000000	      0.00000000	    601.00000000	   2701.67789814	      0.00000000	    604.37128953	     -0.00000000	     -0.00000000	      0.00000000	     26.82848305	     39.53471321	    -12.31429965
      0.78200000	     -0.00000000	     -0.00000000	     -0.00000000	      1.05081305	      0.44241872	     -0.19854667	   -904.00000000	      0.00000000	    601.00000000	   2703.73669531	      0.00000000	    601.65912287	     -0.00000000	     -0.00000000	     -0.00000000	     14.83299790	     24.31738239	     -7.52823472
      0.78300000	     -0.00000000	     -0.00000000	     -0.00000000	      1.33017740	      0.69982597	     -0.36685438	   -904.00000000	      0.00000000	    601.00000000	   2705.55247179	      0.00000000	    599.38393953	     -0.00000000	     -0.00000000	     -0.00000000	      4.10358337	     10.22218362	     -3.10514778
      0.78400000	     -0.00000000	     -0.00000000	     -0.00000000	      1.43120647	      0.83786922	     -0.46650766	   -904.00000000	      0.00000000	    601.00000000	   2707.01675669	      0.00000000	    597.65306112	      0.00000000	      0.00000000	     -0.00000000	     -4.68434018	     -1.74683486	      0.64200111
      0.78500000	     -0.00000000	     -0.00000000	     -0.00000000	      1.38331901	      0.87022507	     -0.50345616	   -904.00000000	      0.00000000	    601.00000000	   2708.07599030	      0.00000000	    596.50210404	      0.00000000	      0.00000000	     -0.00000000	    -11.17396605	    -10.99246545	      3.52830482
      0.78600000	     -0.00000000	     -0.00000000	     -0.00000000	      1.22274718	      0.81699198	     -0.48790660	   -904.00000000	      0.00000000	    601.00000000	   2708.72404077	      0.00000000	    595.90771640	      0.00000000	      0.00000000	     -0.00000000	    -15.28823487	    -17.28689062	      5.48483397
      0.78700000	     -0.00000000	     -0.00000000	     -0.00000000	      0.98785570	      0.70148454	     -0.43249444	   -904.00000000	      0.00000000	    601.00000000	   2708.99232622	      0.00000000	    595.80255626	      0.00000000	      0.00000000	     -0.00000000	    -17.17552104	    -20.71089089	      6.53930711
      0.78800000	     -0.00000000	     -0.00000000	     -0.00000000	      0.71530161	      0.54746544	     -0.35064521	   -904.00000000	      0.00000000	    601.00000000	   2708.93887284	      0.00000000	    596.09078058	      0.00000000	      0.00000000	     -0.00000000	    -17.14771752	    -21.57974530	      6.79266031
      0.78900000	     -0.00000000	      0.00000000	     -0.00000000	      0.43718066	      0.37695144	     -0.25522441	   -904.00000000	      0.00000000	    601.00000000	   2708.63745901	      0.00000000	    596.66262552	      0.00000000	      0.00000000	     -0.00000000	    -15.61759903	    -20.36493774	      6.39437436
      0.79000000	      0.00000000	      0.00000000	     -0.00000000	      0.17919194	      0.20865419	     -0.15752929	   -904.00000000	      0.00000000	    601.00000000	   2708.16775075	      0.00000000	    597.40702956	      0.00000000	      0.00000000	     -0.00000000	    -13.04097541	    -17.61925191	      5.51893129
